<svg width="20" height="20" viewBox="0 0 20 20" fill="none" xmlns="http://www.w3.org/2000/svg">
<path d="M8.91075 7.76158C9.13813 7.7616 9.36266 7.81443 9.5662 7.91658C9.80513 8.03588 10.0043 8.24768 10.2067 8.45232L17.1468 15.4464L17.2991 15.6006C17.4491 15.7541 17.5896 15.9118 17.6784 16.0918L17.7463 16.2516C17.8816 16.6297 17.8592 17.0497 17.6792 17.4137L17.6784 17.4129C17.5899 17.5925 17.4503 17.7514 17.2998 17.9057L16.9954 18.2125C16.8422 18.3642 16.6846 18.5048 16.5064 18.5941L16.5072 18.5949C16.0951 18.8017 15.6111 18.8017 15.1986 18.5949C15.0191 18.5056 14.8613 18.3643 14.708 18.2125L14.555 18.0591L7.61484 11.0651C7.41165 10.8603 7.20062 10.6577 7.08244 10.4164C6.9033 10.0529 6.88143 9.63369 7.01618 9.25673L7.08323 9.09776C7.20133 8.8585 7.41173 8.65702 7.61484 8.45232C7.81669 8.2489 8.01726 8.03508 8.25688 7.91578C8.46002 7.81414 8.68393 7.76158 8.91075 7.76158ZM10.6349 12.3814L15.4116 17.1959L15.6687 17.4471L15.735 17.5011L15.7373 17.5019L15.7933 17.5226C15.8507 17.5361 15.912 17.5295 15.9669 17.5019L16.0339 17.4479C16.0931 17.3947 16.1683 17.3196 16.291 17.1959C16.4138 17.0722 16.4883 16.9964 16.5411 16.9368C16.5909 16.8805 16.5972 16.865 16.5947 16.87L16.6152 16.812C16.6288 16.7535 16.6215 16.6919 16.5947 16.6379L16.5939 16.6355C16.596 16.6397 16.5895 16.6236 16.5411 16.5687C16.4887 16.5095 16.4144 16.4343 16.2918 16.3112L11.5136 11.4959L10.6349 12.3814ZM8.91075 8.9825C8.87083 8.9825 8.83134 8.99162 8.79559 9.00953L8.79323 9.01032C8.79892 9.00749 8.78446 9.0133 8.72855 9.06358C8.66938 9.11678 8.5946 9.19142 8.47142 9.31555C8.34867 9.43925 8.27415 9.51501 8.22139 9.57468C8.1716 9.63099 8.16527 9.64646 8.16775 9.64145C8.14042 9.69674 8.13382 9.75932 8.14724 9.81711L8.16775 9.87355L8.16854 9.87594L8.22218 9.9427C8.27467 10.0021 8.34834 10.0778 8.47063 10.201L9.77837 11.5181L10.657 10.6327L9.34929 9.31476C9.22714 9.19124 9.15252 9.11638 9.09374 9.06358C9.03936 9.01474 9.0233 9.00817 9.02748 9.01032L9.02591 9.00953C8.99015 8.99158 8.95069 8.98252 8.91075 8.9825ZM5.11294 2.87789C5.36597 2.87823 5.59208 3.03704 5.68005 3.27613L5.8591 3.76259L6.01842 4.18943C6.15146 4.53206 6.21498 4.64506 6.30079 4.73153C6.3871 4.81851 6.49964 4.88238 6.83951 5.0161L7.26227 5.17666L7.26385 5.17746L7.74656 5.35789C7.98386 5.4469 8.14112 5.67581 8.14093 5.93099C8.14065 6.15404 8.01996 6.35623 7.83096 6.46276L7.74577 6.5025L7.26306 6.68294C6.57772 6.93842 6.416 7.01276 6.30158 7.12807C6.18652 7.24403 6.11224 7.40712 5.85988 8.09701L5.8591 8.0986L5.68005 8.58507C5.59172 8.82421 5.36458 8.98269 5.11137 8.9825C4.89003 8.98221 4.68941 8.86058 4.5837 8.67012L4.54426 8.58427L4.36521 8.09781C4.1117 7.40715 4.03793 7.24417 3.92352 7.12886C3.80845 7.01291 3.64662 6.93805 2.96204 6.68374L2.96046 6.68294L2.47775 6.5025C2.24045 6.41349 2.08319 6.18459 2.08337 5.9294C2.0837 5.67441 2.2413 5.44655 2.47854 5.35789L2.96125 5.17746L3.3848 5.01689C3.72479 4.88282 3.83692 4.8188 3.92273 4.73233C4.03779 4.61637 4.11207 4.45328 4.36442 3.76338L4.36521 3.76179L4.54426 3.27533L4.5837 3.18948C4.68971 2.99897 4.89141 2.87773 5.11294 2.87789ZM13.9966 1.25C14.2499 1.25 14.4764 1.40889 14.5645 1.64823L14.8027 2.29764L15.0148 2.86359C15.1948 3.32759 15.2944 3.51644 15.4376 3.66164L15.5149 3.73159C15.6528 3.84341 15.8471 3.93851 16.2319 4.09007L16.7935 4.30389L17.4379 4.54394C17.6754 4.6327 17.833 4.86095 17.833 5.11625C17.833 5.37155 17.6754 5.5998 17.4379 5.68856L16.7935 5.92861C15.8992 6.26181 15.6307 6.37676 15.4384 6.57007C15.2946 6.71589 15.1948 6.90499 15.0148 7.36891L14.8027 7.93486L14.5645 8.58427C14.4764 8.82361 14.2499 8.9825 13.9966 8.9825C13.7432 8.9825 13.5168 8.82361 13.4287 8.58427L13.1905 7.93486C12.8606 7.03576 12.7465 6.76459 12.5555 6.57086L12.4782 6.50091C12.3404 6.38909 12.1461 6.29399 11.7613 6.14243L11.1997 5.92861L10.5553 5.68856C10.3178 5.5998 10.1601 5.37155 10.1601 5.11625C10.1601 4.86095 10.3178 4.6327 10.5553 4.54394L11.1997 4.30389L11.7613 4.09007C12.2231 3.90819 12.4105 3.80743 12.5548 3.66243C12.7466 3.46786 12.8607 3.19651 13.1905 2.29764L13.4287 1.64823L13.4681 1.56238C13.574 1.37168 13.7749 1.25 13.9966 1.25ZM5.11215 5.13453C5.01987 5.30648 4.91353 5.46029 4.7793 5.59556C4.64548 5.73042 4.49304 5.83728 4.32262 5.9302C4.49324 6.0232 4.64586 6.13036 4.78009 6.26563C4.91375 6.40033 5.02003 6.55357 5.11215 6.72507C5.20436 6.55337 5.31094 6.39995 5.445 6.26484C5.57866 6.13014 5.73072 6.02304 5.9009 5.9302C5.73052 5.83727 5.57828 5.72987 5.44422 5.59476C5.3104 5.4599 5.20436 5.30628 5.11215 5.13453ZM13.9966 3.58215C13.8358 3.96034 13.6639 4.27039 13.4113 4.52566L13.4097 4.52725C13.1569 4.78128 12.8494 4.9543 12.4743 5.11625C12.7713 5.2445 13.0262 5.37932 13.2449 5.55661L13.4105 5.70604L13.4121 5.70763L13.5604 5.87456C13.7358 6.09448 13.8695 6.35078 13.9966 6.64956C14.1573 6.27167 14.3294 5.96196 14.5818 5.70684L14.5834 5.70525L14.749 5.55581C14.9673 5.37907 15.2216 5.24428 15.5181 5.11625C15.1431 4.95428 14.8358 4.78082 14.5826 4.52646L14.581 4.52487C14.329 4.27009 14.1573 3.9602 13.9966 3.58215Z" fill="#09161A" fill-opacity="0.95"/>
</svg>
